<svg id="Calque_1" data-name="Calque 1" xmlns="http://www.w3.org/2000/svg" viewBox="0 0 369.07 156.73"><defs><style>.cls-1{fill:#d15c23;}.cls-2{fill:#002b2f;}.cls-3{fill:#2869a9;}.cls-4{fill:#446ca8;}.cls-5{fill:#5b8ca7;}.cls-6{fill:#7492a8;}.cls-7{fill:#fff;}</style></defs><title>logo_apeira</title><path class="cls-1" d="M307,294.63a16.45,16.45,0,0,0-16.43,16.43v7.86h-3.06a7.88,7.88,0,0,1-6.81-3.93l-7-12.14a16.44,16.44,0,1,0-6,22.44l7-4a16.44,16.44,0,0,0,12.86,6.23h3.07v12h8.57v-12H307a16.43,16.43,0,1,0,0-32.86Zm-43.62,23.24a7.86,7.86,0,1,1,2.88-10.74l3.93,6.8ZM307,318.92h-7.86v-7.86a7.86,7.86,0,1,1,7.86,7.86Z" transform="translate(-240.4 -182.79)"/><rect class="cls-1" x="129.67" y="113.69" width="8.57" height="30.25"/><path class="cls-1" d="M358.45,309.78a4.29,4.29,0,0,0,1.57-5.84v0c-.17-.36-.37-.72-.57-1.08a16.43,16.43,0,1,0-15.15,24.62l.92,0a28.6,28.6,0,0,0,14.29-3.83l-4.29-7.42a19.74,19.74,0,0,1-10,2.68,7.86,7.86,0,0,1-2.12-.29l15.33-8.85Zm-21,2.24A7.86,7.86,0,0,1,350,304.78Z" transform="translate(-240.4 -182.79)"/><path class="cls-1" d="M396.35,296.64v0l-8.57,5v25.15h8.57V311.06a7.86,7.86,0,0,1,12.14-6.6l4.65-7.19A16.36,16.36,0,0,0,396.35,296.64Z" transform="translate(-240.4 -182.79)"/><path class="cls-2" d="M500.47,296h31.68v6.33H506.8v6.34h12.67V315H506.8v6.33h25.35v6.34H500.47Z" transform="translate(-240.4 -182.79)"/><path class="cls-2" d="M547.76,296h31.68v6.33H554.1v19h25.34v6.34H547.76Z" transform="translate(-240.4 -182.79)"/><path class="cls-2" d="M462.33,296h6.33v25.34H494v6.34H462.33Z" transform="translate(-240.4 -182.79)"/><path class="cls-2" d="M418.1,296h31.68v6.33H424.43v6.34h12.68V315H424.43v6.33h25.35v6.34H418.1Z" transform="translate(-240.4 -182.79)"/><path class="cls-3" d="M509.15,220.22c-15.39-13.14-44.86-37.43-84.22-37.43S354,206.61,326.77,233.1c-25.64,24.9-42.86,46.46-86.37,53.7h0c54-3.42,84.19-25.7,113.35-47.26,26.68-19.72,51.89-38.35,92.38-38.35C472.87,201.19,492.09,209.94,509.15,220.22Z" transform="translate(-240.4 -182.79)"/><path class="cls-4" d="M538,247.8c-21.15-22.72-53.24-43.61-91.88-43.61-39.45,0-64.25,18.33-90.51,37.74-23.78,17.57-49.55,37.12-90.32,44.86h0c58.34-2.67,89.72-21.17,117.42-37.48,24.32-14.34,45.33-26.72,79-26.72,31,0,50.85,10.92,73.74,23.78L538,247.8" transform="translate(-240.4 -182.79)"/><path class="cls-5" d="M561.71,268.08s-8.22-3.25-20.71-8.5C520.92,251.16,503.54,244,477.31,244c-27.16,0-45,7.56-65.73,16.3-26.35,11.13-56.09,23.7-114.73,26.26,39.85-6.63,64.88-21.37,87.46-34.68,23.93-14.1,44.6-26.28,77.41-26.28,30.15,0,49.5,11.1,72.21,23.38,11.5,6.23,27.78,19.11,27.78,19.11" transform="translate(-240.4 -182.79)"/><path class="cls-6" d="M588.16,281.5c-16.91-5.34-30.63-11.78-48.38-19.16C520,254.1,502.91,247,477.31,247c-26.52,0-44.12,7.44-64.5,16.05-19.67,8.32-42.95,18.15-80.26,23.34,56.52-1.86,84.71-8.36,107.76-13.69,17.66-4.08,31.61-7.3,52.59-7.3,21.46,0,36.32,3.53,53.52,7.61,16,3.79,18.57,4.59,41.74,8.5Z" transform="translate(-240.4 -182.79)"/><path class="cls-7" d="M609.47,286.79c-28.9-2.59-47.64-7-63.79-10.87-17-4-31.69-7.53-52.78-7.53-20.62,0-34.41,3.19-51.88,7.22-16.6,3.84-35.86,8.28-66.31,11.18Z" transform="translate(-240.4 -182.79)"/><rect class="cls-2" x="216.56" y="50.17" width="5.5" height="27.5"/><rect class="cls-2" x="205.56" y="61.17" width="27.5" height="5.5"/></svg>